<svg width="27" height="24" viewBox="0 0 27 24" fill="none" xmlns="http://www.w3.org/2000/svg">
    <path fill-rule="evenodd" clip-rule="evenodd" d="M5.06126 0.0839844H3.22608C1.85072 0.0839844 0.731445 1.20326 0.731445 2.57781C0.731445 3.95235 1.85072 5.06999 3.22608 5.06999H4.06635L5.96126 15.0174C6.14699 16.0009 6.65344 16.8584 7.35953 17.4884C6.47344 18.1159 5.89335 19.1493 5.89335 20.3144C5.89335 22.2224 7.44708 23.7744 9.35586 23.7744C11.2655 23.7744 12.8192 22.2224 12.8192 20.3144C12.8192 19.6966 12.6564 19.1182 12.3717 18.615H17.9566C17.6719 19.1182 17.509 19.6966 17.509 20.3144C17.509 22.2224 19.0628 23.7744 20.9716 23.7744C22.8812 23.7744 24.4341 22.2224 24.4341 20.3144C24.4341 19.4332 24.1036 18.6281 23.5595 18.0177C24.0946 17.5595 24.4341 16.8788 24.4341 16.122C24.4341 15.2228 23.9563 14.4333 23.2404 13.9955C24.1077 13.4138 24.768 12.5285 25.0551 11.4698L26.7087 5.32853C26.9664 4.3819 26.7709 3.38862 26.1728 2.60726C25.5739 1.82262 24.664 1.37426 23.6781 1.37426H7.90608C7.19672 0.569166 6.1609 0.0839844 5.06126 0.0839844ZM9.35586 18.3794C10.4252 18.3794 11.2917 19.2458 11.2917 20.3144C11.2917 21.3829 10.4252 22.2494 9.35586 22.2494C8.28732 22.2494 7.42008 21.3829 7.42008 20.3144C7.42008 19.2458 8.28732 18.3794 9.35586 18.3794ZM20.9716 18.3794C22.041 18.3794 22.9082 19.2458 22.9082 20.3144C22.9082 21.3829 22.041 22.2494 20.9716 22.2494C19.903 22.2494 19.0358 21.3829 19.0358 20.3144C19.0358 19.2458 19.903 18.3794 20.9716 18.3794ZM5.06126 1.6099C5.94817 1.6099 6.73526 2.12535 7.10181 2.90017H23.6781C24.7385 2.90017 25.5133 3.90735 25.2351 4.93253L23.5816 11.0714C23.2388 12.3371 22.0892 13.2199 20.7785 13.2199H9.14232L9.36077 14.3686C9.44914 14.8235 9.84841 15.1549 10.3123 15.1549H21.9403C22.4762 15.1549 22.9082 15.5861 22.9082 16.122C22.9082 16.6587 22.4762 17.0899 21.9403 17.0899H10.3123C8.9165 17.0899 7.71872 16.0983 7.46099 14.7319L5.37953 3.80753C5.35172 3.65371 5.21835 3.5449 5.06126 3.5449H3.22608C2.68935 3.5449 2.25817 3.1129 2.25817 2.57781C2.25817 2.0419 2.68935 1.6099 3.22608 1.6099H5.06126Z" fill="white"/>
</svg>